<?xml version="1.0" encoding="utf-8"?>
<!-- Generator: Adobe Illustrator 24.0.2, SVG Export Plug-In . SVG Version: 6.00 Build 0)  -->
<svg version="1.1" id="Capa_1" xmlns="http://www.w3.org/2000/svg" xmlns:xlink="http://www.w3.org/1999/xlink" x="0px" y="0px"
	 viewBox="0 0 32 32" style="enable-background:new 0 0 32 32;" xml:space="preserve">
<style type="text/css">
	.st0{fill:#164B27;}
	.st1{fill:#196A36;}
	.st2{fill:#D1E6CE;}
</style>
<g>
	<circle class="st0" cx="16" cy="16" r="15.9"/>
	<path class="st1" d="M31.6,18.8c-1.3,7.4-7.8,13.1-15.6,13.1c-8.2,0-14.9-6.2-15.8-14.1C2,16.8,3,16.3,4.3,15.9
		c1.1-0.3,3.9-1.1,8.4-1.2c1.5,0,6.6-0.1,12.7,1.7C25.5,16.4,28.7,17.3,31.6,18.8z"/>
	<path id="Path_4_2_" class="st2" d="M23.9,11.4h-3.7c-1.1-2.9-5.3-3.8-7.6-1.7c-1.4,1.3-0.9,3.3,0.9,3.8c1.3,0.3,2.7,0.5,4,0.7
		c1,0.2,2,0.4,3.1,0.7c4.7,1.3,4.6,6.2,2.8,8.8c-1.3,1.8-3.2,2.7-5.4,3c-2.9,0.4-5.6,0.2-8.1-1.6c-0.8-0.5-1.4-1.3-1.8-2.1
		c-0.4-0.8-0.6-1.7-0.6-2.6h4c-0.1,0,0.7,1.5,0.8,1.7c0.5,0.5,1,0.7,1.7,0.9c2.1,0.5,7,0.4,6.7-2.8c-0.1-1-0.9-1.6-1.8-1.8
		c-1.6-0.4-3.3-0.6-5-0.9c-0.6-0.1-1.3-0.2-1.9-0.4c-4.3-1.3-4.7-4.9-3.5-7.8c0.9-2.3,2.8-3.4,5.1-3.9c2.9-0.6,5.7-0.4,8.2,1.5
		C23.1,7.9,24,9.8,23.9,11.4"/>
</g>
</svg>
