<?xml version="1.0" encoding="utf-8"?>
<!-- Generator: Adobe Illustrator 24.0.2, SVG Export Plug-In . SVG Version: 6.00 Build 0)  -->
<svg version="1.1" id="Capa_1" xmlns="http://www.w3.org/2000/svg" xmlns:xlink="http://www.w3.org/1999/xlink" x="0px" y="0px"
	 viewBox="0 0 1500 1500" style="enable-background:new 0 0 1500 1500;" xml:space="preserve">
<style type="text/css">
	.st0{fill:#009E3A;}
</style>
<g>
	<path id="Path_1_1_" class="st0" d="M587.7,678.3c31.5-56.5,110.7-51.2,142.2-20.8c15.5,15.5,25.6,33.9,26.2,55.3
		c1.8,49.4,0.6,98.8,0.6,148.7H715V852c0-41.6,0.6-83.9-0.6-125.5c-0.6-33.3-21.4-51.8-51.8-51.8c-32.7,0-53,21.4-53,57.7
		c-0.6,39.9,0,79.1,0,119c0,3,0,6.5,0,10.1h-42.2V852c0-38.7,0-77.3,0-116c0-8.9-1.2-17.3-3.6-25.6c-7.7-26.2-29.2-38.7-58.9-35.1
		c-23.8,2.4-42.2,22.6-42.8,46.4c-1.2,42.8-0.6,86.3-1.2,129.1c0,3.6,0,7.1,0,11.3h-41.6c-0.6-0.6-1.2-1.2-1.2-1.8
		c0-44.6-1.2-89.2,0-133.3c0.6-26.8,8.9-51.8,29.7-70.8c32.7-29.7,107.7-31.5,137.4,19C585.9,675.3,586.5,676.5,587.7,678.3"/>
	<path id="Path_2_1_" class="st0" d="M792.9,955.6c0-2.4-0.6-4.8-0.6-7.7c0-66.6-0.6-133.3,0-199.9c0.6-76.2,61.9-120.8,132.7-112.5
		c39.3,4.2,70.2,22,89.8,56.5c28.6,51.2,18.4,130.9-44,163c-39.3,20.2-89.8,16.1-120.2-11.3c-5.4-4.8-10.1-11.3-16.7-18.4v112.5
		 M834.6,750.9c0,45.2,30.9,77.9,75.6,77.3c46.4,0,76.8-30.3,77.3-76.8c0-48.2-33.3-77.3-76.2-77.3
		C865.5,674.7,834.6,705.7,834.6,750.9"/>
	<path id="Path_3_1_" class="st0" d="M1370.7,800.3c-14.9,48.8-81.5,78.5-139.2,64.3c-65.4-16.1-97.6-73.2-86.9-135.1
		c11.9-69,70.2-100.6,130.3-94.6c70.8,7.1,110.7,57.1,105.9,131.5H1188c4.2,25,15.5,44.6,38.7,54.1c29.7,12.5,60.1,13.1,85.7-8.3
		c11.9-10.1,23.2-11.9,36.9-12.5C1355.8,800.3,1363,800.3,1370.7,800.3 M1334.4,728.9c-2.4-29.7-33.9-53.5-70.8-54.1
		c-38.7-0.6-70.2,22.6-73.8,54.1H1334.4z"/>
	<path id="Path_4_1_" class="st0" d="M296.7,702.7h-40.5c-11.9-30.9-57.1-40.5-80.9-18.4c-14.9,13.7-10.1,35.7,10.1,40.5
		c14.3,3.6,28.6,4.8,42.8,7.7c10.7,1.8,22,4.2,32.7,7.1c51.2,13.7,50,66.6,29.7,94.6c-14.3,19.6-35.1,28.6-58.3,31.5
		c-30.9,4.2-60.7,1.8-86.9-17.3c-8.3-5.9-14.9-13.7-19.6-22.6c-4.2-8.3-6.5-17.8-7.1-27.4h42.2c-1.2,0,7.1,16.7,8.3,17.8
		c5.4,5.4,11.3,7.7,18.4,9.5c22.6,5.9,75,3.6,72-30.3c-1.2-11.3-8.9-17.3-19-19c-17.8-3.6-35.7-5.9-53.5-9.5
		c-6.5-1.2-13.7-3-20.2-4.8c-46.4-13.7-50-53-38.1-83.3c10.1-24.4,29.7-36.3,54.7-41.6c31.5-6.5,61.3-3.6,88.7,15.5
		C288.4,665.2,297.9,684.8,296.7,702.7"/>
	<path id="Path_5_1_" class="st0" d="M340.2,861.6V640.8h41.6v220.7"/>
	<path id="Path_6_1_" class="st0" d="M390.1,576c0,16.1-13.1,29.7-29.2,29.7s-29.7-13.1-29.7-29.2c0-0.6,0-1.2,0-1.8
		c0.6-16.1,13.7-29.2,29.7-28.6C377.6,546.2,390.7,559.9,390.1,576L390.1,576"/>
	<path id="Path_8_1_" class="st0" d="M1065.5,834.8c0-105.9,0-184.4,0-290.4h41.6v271.9"/>
</g>
</svg>
